<mxfile host="app.diagrams.net" modified="2023-07-13T07:07:33.426Z" agent="Mozilla/5.0 (Windows NT 10.0; Win64; x64) AppleWebKit/537.36 (KHTML, like Gecko) Chrome/114.0.0.0 Safari/537.36" etag="DGioDAvJzbrZjP3MjPn8" version="21.6.2" type="github">
  <diagram name="Page-1" id="nv0in6sxqN7r_D8xVUoy">
    <mxGraphModel dx="733" dy="323" grid="1" gridSize="10" guides="1" tooltips="1" connect="1" arrows="1" fold="1" page="1" pageScale="1" pageWidth="1654" pageHeight="2336" math="0" shadow="0">
      <root>
        <mxCell id="0" />
        <mxCell id="1" parent="0" />
        <mxCell id="EH9wGpjO3HeuwXqVaA0w-17" value="" style="whiteSpace=wrap;html=1;aspect=fixed;fillColor=#f5f5f5;strokeColor=#666666;fontColor=#333333;" parent="1" vertex="1">
          <mxGeometry x="410" y="280" width="820" height="820" as="geometry" />
        </mxCell>
        <mxCell id="EH9wGpjO3HeuwXqVaA0w-18" value="&lt;h1&gt;&lt;b&gt;United Pharma Web Application&lt;/b&gt;&lt;/h1&gt;" style="text;html=1;strokeColor=none;fillColor=none;align=center;verticalAlign=middle;whiteSpace=wrap;rounded=0;fontFamily=Verdana;" parent="1" vertex="1">
          <mxGeometry x="662.5" y="300" width="455" height="30" as="geometry" />
        </mxCell>
        <mxCell id="EH9wGpjO3HeuwXqVaA0w-20" style="edgeStyle=elbowEdgeStyle;rounded=0;orthogonalLoop=1;jettySize=auto;html=1;strokeColor=default;endArrow=none;endFill=0;" parent="1" source="EH9wGpjO3HeuwXqVaA0w-1" target="EH9wGpjO3HeuwXqVaA0w-19" edge="1">
          <mxGeometry relative="1" as="geometry" />
        </mxCell>
        <mxCell id="N690Rj-D5nCbPYyqFjpt-38" style="rounded=0;orthogonalLoop=1;jettySize=auto;html=1;entryX=0;entryY=0.5;entryDx=0;entryDy=0;endArrow=none;endFill=0;" edge="1" parent="1" source="EH9wGpjO3HeuwXqVaA0w-1" target="N690Rj-D5nCbPYyqFjpt-37">
          <mxGeometry relative="1" as="geometry" />
        </mxCell>
        <mxCell id="EH9wGpjO3HeuwXqVaA0w-1" value="Registered Customer" style="shape=umlActor;verticalLabelPosition=bottom;verticalAlign=top;html=1;outlineConnect=0;" parent="1" vertex="1">
          <mxGeometry x="260" y="500" width="30" height="60" as="geometry" />
        </mxCell>
        <mxCell id="EH9wGpjO3HeuwXqVaA0w-13" style="rounded=0;orthogonalLoop=1;jettySize=auto;html=1;edgeStyle=elbowEdgeStyle;elbow=vertical;endArrow=block;endFill=0;" parent="1" edge="1">
          <mxGeometry relative="1" as="geometry">
            <mxPoint x="270" y="600" as="targetPoint" />
            <mxPoint x="205" y="650" as="sourcePoint" />
          </mxGeometry>
        </mxCell>
        <mxCell id="EH9wGpjO3HeuwXqVaA0w-2" value="Retail Customer" style="shape=umlActor;verticalLabelPosition=bottom;verticalAlign=top;html=1;outlineConnect=0;" parent="1" vertex="1">
          <mxGeometry x="190" y="650" width="30" height="60" as="geometry" />
        </mxCell>
        <mxCell id="EH9wGpjO3HeuwXqVaA0w-14" style="rounded=0;orthogonalLoop=1;jettySize=auto;html=1;jumpStyle=none;edgeStyle=elbowEdgeStyle;elbow=vertical;endArrow=block;endFill=0;" parent="1" source="EH9wGpjO3HeuwXqVaA0w-6" edge="1">
          <mxGeometry relative="1" as="geometry">
            <mxPoint x="270" y="600" as="targetPoint" />
          </mxGeometry>
        </mxCell>
        <mxCell id="EH9wGpjO3HeuwXqVaA0w-6" value="Wholesale Customer" style="shape=umlActor;verticalLabelPosition=bottom;verticalAlign=top;html=1;outlineConnect=0;" parent="1" vertex="1">
          <mxGeometry x="320" y="650" width="30" height="60" as="geometry" />
        </mxCell>
        <mxCell id="EH9wGpjO3HeuwXqVaA0w-23" style="edgeStyle=elbowEdgeStyle;rounded=0;orthogonalLoop=1;jettySize=auto;html=1;endArrow=none;endFill=0;" parent="1" source="EH9wGpjO3HeuwXqVaA0w-15" target="EH9wGpjO3HeuwXqVaA0w-21" edge="1">
          <mxGeometry relative="1" as="geometry" />
        </mxCell>
        <mxCell id="EH9wGpjO3HeuwXqVaA0w-15" value="Unregistered Customer" style="shape=umlActor;verticalLabelPosition=bottom;verticalAlign=top;html=1;outlineConnect=0;" parent="1" vertex="1">
          <mxGeometry x="260" y="960" width="30" height="60" as="geometry" />
        </mxCell>
        <mxCell id="N690Rj-D5nCbPYyqFjpt-19" style="rounded=0;orthogonalLoop=1;jettySize=auto;html=1;entryX=0.5;entryY=1;entryDx=0;entryDy=0;dashed=1;edgeStyle=orthogonalEdgeStyle;elbow=vertical;" edge="1" parent="1" source="N690Rj-D5nCbPYyqFjpt-18" target="EH9wGpjO3HeuwXqVaA0w-19">
          <mxGeometry relative="1" as="geometry" />
        </mxCell>
        <mxCell id="N690Rj-D5nCbPYyqFjpt-20" value="&amp;lt;&amp;lt;extend&amp;gt;&amp;gt;" style="edgeLabel;html=1;align=center;verticalAlign=middle;resizable=0;points=[];" vertex="1" connectable="0" parent="N690Rj-D5nCbPYyqFjpt-19">
          <mxGeometry x="-0.0944" y="2" relative="1" as="geometry">
            <mxPoint as="offset" />
          </mxGeometry>
        </mxCell>
        <mxCell id="EH9wGpjO3HeuwXqVaA0w-19" value="Login" style="ellipse;whiteSpace=wrap;html=1;fillColor=#0066CC;strokeColor=#006EAF;fontColor=#ffffff;" parent="1" vertex="1">
          <mxGeometry x="470" y="500" width="90" height="60" as="geometry" />
        </mxCell>
        <mxCell id="EH9wGpjO3HeuwXqVaA0w-21" value="Register" style="ellipse;whiteSpace=wrap;html=1;fillColor=#0066CC;strokeColor=#006EAF;fontColor=#ffffff;" parent="1" vertex="1">
          <mxGeometry x="470" y="960" width="90" height="60" as="geometry" />
        </mxCell>
        <mxCell id="N690Rj-D5nCbPYyqFjpt-7" style="rounded=0;orthogonalLoop=1;jettySize=auto;html=1;edgeStyle=orthogonalEdgeStyle;entryX=1;entryY=0.5;entryDx=0;entryDy=0;endArrow=block;endFill=0;jumpStyle=none;" edge="1" parent="1" source="N690Rj-D5nCbPYyqFjpt-1" target="EH9wGpjO3HeuwXqVaA0w-19">
          <mxGeometry relative="1" as="geometry" />
        </mxCell>
        <mxCell id="N690Rj-D5nCbPYyqFjpt-1" value="Google Account" style="ellipse;whiteSpace=wrap;html=1;fillColor=#0066CC;strokeColor=#006EAF;fontColor=#ffffff;" vertex="1" parent="1">
          <mxGeometry x="650" y="410" width="90" height="60" as="geometry" />
        </mxCell>
        <mxCell id="N690Rj-D5nCbPYyqFjpt-8" style="rounded=0;orthogonalLoop=1;jettySize=auto;html=1;edgeStyle=orthogonalEdgeStyle;endArrow=block;endFill=0;jumpStyle=none;" edge="1" parent="1" source="N690Rj-D5nCbPYyqFjpt-5" target="EH9wGpjO3HeuwXqVaA0w-19">
          <mxGeometry relative="1" as="geometry" />
        </mxCell>
        <mxCell id="N690Rj-D5nCbPYyqFjpt-5" value="Facebook Account" style="ellipse;whiteSpace=wrap;html=1;fillColor=#0066CC;strokeColor=#006EAF;fontColor=#ffffff;" vertex="1" parent="1">
          <mxGeometry x="650" y="480" width="90" height="60" as="geometry" />
        </mxCell>
        <mxCell id="N690Rj-D5nCbPYyqFjpt-9" style="rounded=0;orthogonalLoop=1;jettySize=auto;html=1;exitX=0;exitY=0.5;exitDx=0;exitDy=0;entryX=1;entryY=0.5;entryDx=0;entryDy=0;edgeStyle=orthogonalEdgeStyle;endArrow=block;endFill=0;jumpStyle=none;" edge="1" parent="1" source="N690Rj-D5nCbPYyqFjpt-6" target="EH9wGpjO3HeuwXqVaA0w-19">
          <mxGeometry relative="1" as="geometry" />
        </mxCell>
        <mxCell id="N690Rj-D5nCbPYyqFjpt-26" value="" style="edgeStyle=elbowEdgeStyle;rounded=0;orthogonalLoop=1;jettySize=auto;html=1;dashed=1;elbow=horizontal;" edge="1" parent="1" source="N690Rj-D5nCbPYyqFjpt-6" target="N690Rj-D5nCbPYyqFjpt-25">
          <mxGeometry relative="1" as="geometry" />
        </mxCell>
        <mxCell id="N690Rj-D5nCbPYyqFjpt-30" value="&amp;lt;&amp;lt;include&amp;gt;&amp;gt;" style="edgeLabel;html=1;align=center;verticalAlign=middle;resizable=0;points=[];" vertex="1" connectable="0" parent="N690Rj-D5nCbPYyqFjpt-26">
          <mxGeometry x="-0.1583" y="-3" relative="1" as="geometry">
            <mxPoint as="offset" />
          </mxGeometry>
        </mxCell>
        <mxCell id="N690Rj-D5nCbPYyqFjpt-6" value="User Account" style="ellipse;whiteSpace=wrap;html=1;fillColor=#0066CC;strokeColor=#006EAF;fontColor=#ffffff;" vertex="1" parent="1">
          <mxGeometry x="650" y="550" width="90" height="60" as="geometry" />
        </mxCell>
        <mxCell id="N690Rj-D5nCbPYyqFjpt-13" style="rounded=0;orthogonalLoop=1;jettySize=auto;html=1;entryX=1;entryY=0.5;entryDx=0;entryDy=0;endArrow=none;endFill=0;" edge="1" parent="1" source="N690Rj-D5nCbPYyqFjpt-11" target="N690Rj-D5nCbPYyqFjpt-1">
          <mxGeometry relative="1" as="geometry" />
        </mxCell>
        <mxCell id="N690Rj-D5nCbPYyqFjpt-16" style="rounded=0;orthogonalLoop=1;jettySize=auto;html=1;entryX=1;entryY=0.5;entryDx=0;entryDy=0;endArrow=none;endFill=0;" edge="1" parent="1" source="N690Rj-D5nCbPYyqFjpt-14" target="N690Rj-D5nCbPYyqFjpt-5">
          <mxGeometry relative="1" as="geometry" />
        </mxCell>
        <mxCell id="N690Rj-D5nCbPYyqFjpt-18" value="Forgot Password" style="ellipse;whiteSpace=wrap;html=1;fillColor=#0066CC;strokeColor=#006EAF;fontColor=#ffffff;" vertex="1" parent="1">
          <mxGeometry x="650" y="620" width="90" height="60" as="geometry" />
        </mxCell>
        <mxCell id="N690Rj-D5nCbPYyqFjpt-28" value="" style="edgeStyle=elbowEdgeStyle;rounded=0;orthogonalLoop=1;jettySize=auto;html=1;dashed=1;" edge="1" parent="1" source="N690Rj-D5nCbPYyqFjpt-25" target="N690Rj-D5nCbPYyqFjpt-27">
          <mxGeometry relative="1" as="geometry" />
        </mxCell>
        <mxCell id="N690Rj-D5nCbPYyqFjpt-31" value="&amp;lt;&amp;lt;include&amp;gt;&amp;gt;" style="edgeLabel;html=1;align=center;verticalAlign=middle;resizable=0;points=[];" vertex="1" connectable="0" parent="N690Rj-D5nCbPYyqFjpt-28">
          <mxGeometry x="-0.1744" y="1" relative="1" as="geometry">
            <mxPoint as="offset" />
          </mxGeometry>
        </mxCell>
        <mxCell id="N690Rj-D5nCbPYyqFjpt-25" value="Verify user name and password" style="ellipse;whiteSpace=wrap;html=1;fillColor=#0066CC;strokeColor=#006EAF;fontColor=#ffffff;" vertex="1" parent="1">
          <mxGeometry x="860" y="550" width="90" height="60" as="geometry" />
        </mxCell>
        <mxCell id="N690Rj-D5nCbPYyqFjpt-27" value="System Accessed" style="ellipse;whiteSpace=wrap;html=1;fillColor=#0066CC;strokeColor=#006EAF;fontColor=#ffffff;" vertex="1" parent="1">
          <mxGeometry x="1080" y="550" width="90" height="60" as="geometry" />
        </mxCell>
        <mxCell id="N690Rj-D5nCbPYyqFjpt-32" value="" style="group" vertex="1" connectable="0" parent="1">
          <mxGeometry x="1310" y="390" width="30" height="160" as="geometry" />
        </mxCell>
        <mxCell id="N690Rj-D5nCbPYyqFjpt-11" value="Google Login Service" style="shape=umlActor;verticalLabelPosition=bottom;verticalAlign=top;html=1;outlineConnect=0;" vertex="1" parent="N690Rj-D5nCbPYyqFjpt-32">
          <mxGeometry width="30" height="60" as="geometry" />
        </mxCell>
        <mxCell id="N690Rj-D5nCbPYyqFjpt-14" value="Facebook Login Service" style="shape=umlActor;verticalLabelPosition=bottom;verticalAlign=top;html=1;outlineConnect=0;" vertex="1" parent="N690Rj-D5nCbPYyqFjpt-32">
          <mxGeometry y="100" width="30" height="60" as="geometry" />
        </mxCell>
        <mxCell id="N690Rj-D5nCbPYyqFjpt-17" style="edgeStyle=elbowEdgeStyle;rounded=0;orthogonalLoop=1;jettySize=auto;html=1;exitX=0.5;exitY=0.5;exitDx=0;exitDy=0;exitPerimeter=0;" edge="1" parent="N690Rj-D5nCbPYyqFjpt-32" source="N690Rj-D5nCbPYyqFjpt-14" target="N690Rj-D5nCbPYyqFjpt-14">
          <mxGeometry relative="1" as="geometry" />
        </mxCell>
        <mxCell id="N690Rj-D5nCbPYyqFjpt-42" value="" style="edgeStyle=elbowEdgeStyle;rounded=0;orthogonalLoop=1;jettySize=auto;html=1;elbow=horizontal;dashed=1;" edge="1" parent="1" source="N690Rj-D5nCbPYyqFjpt-41" target="N690Rj-D5nCbPYyqFjpt-37">
          <mxGeometry relative="1" as="geometry" />
        </mxCell>
        <mxCell id="N690Rj-D5nCbPYyqFjpt-44" value="&amp;lt;&amp;lt;extend&amp;gt;&amp;gt;" style="edgeLabel;html=1;align=center;verticalAlign=middle;resizable=0;points=[];" vertex="1" connectable="0" parent="N690Rj-D5nCbPYyqFjpt-42">
          <mxGeometry x="-0.2826" y="-1" relative="1" as="geometry">
            <mxPoint x="13" y="-1" as="offset" />
          </mxGeometry>
        </mxCell>
        <mxCell id="N690Rj-D5nCbPYyqFjpt-37" value="View Products" style="ellipse;whiteSpace=wrap;html=1;fillColor=#0066CC;strokeColor=#006EAF;fontColor=#ffffff;" vertex="1" parent="1">
          <mxGeometry x="470" y="730" width="90" height="60" as="geometry" />
        </mxCell>
        <mxCell id="N690Rj-D5nCbPYyqFjpt-41" value="Order Products" style="ellipse;whiteSpace=wrap;html=1;fillColor=#0066CC;strokeColor=#006EAF;fontColor=#ffffff;" vertex="1" parent="1">
          <mxGeometry x="650" y="730" width="90" height="60" as="geometry" />
        </mxCell>
        <mxCell id="N690Rj-D5nCbPYyqFjpt-47" style="rounded=0;orthogonalLoop=1;jettySize=auto;html=1;exitX=0.267;exitY=0.867;exitDx=0;exitDy=0;entryX=1;entryY=0.5;entryDx=0;entryDy=0;dashed=1;exitPerimeter=0;" edge="1" parent="1" source="N690Rj-D5nCbPYyqFjpt-41" target="N690Rj-D5nCbPYyqFjpt-46">
          <mxGeometry relative="1" as="geometry" />
        </mxCell>
        <mxCell id="N690Rj-D5nCbPYyqFjpt-48" value="&amp;lt;&amp;lt;extend&amp;gt;&amp;gt;" style="edgeLabel;html=1;align=center;verticalAlign=middle;resizable=0;points=[];" vertex="1" connectable="0" parent="N690Rj-D5nCbPYyqFjpt-47">
          <mxGeometry x="-0.2858" y="1" relative="1" as="geometry">
            <mxPoint as="offset" />
          </mxGeometry>
        </mxCell>
        <mxCell id="N690Rj-D5nCbPYyqFjpt-46" value="Search Products" style="ellipse;whiteSpace=wrap;html=1;fillColor=#0066CC;strokeColor=#006EAF;fontColor=#ffffff;" vertex="1" parent="1">
          <mxGeometry x="470" y="820" width="90" height="60" as="geometry" />
        </mxCell>
      </root>
    </mxGraphModel>
  </diagram>
</mxfile>
